M48
; Irrigation Node — Sera AI — Drill File
; KiCad 7.0 — 2026-03-11
; Board: 120x100mm
; Units: MM
; Format: Excellon
METRIC,TZ
FMAT,2
; Tool table
T1C0.600  ; Via drill
T2C0.800  ; DO-41 diode, DIP pin
T3C0.900  ; RJ45 signal pins
T4C1.000  ; Header/JST pin
T5C1.200  ; TO-220/TO-263 / inductor
T6C1.500  ; Screw terminal / DC jack
T7C3.200  ; M3 mounting hole
%
G90
G05
M71
; === Mounting holes M3 (T7) ===
T7
X3.500Y-3.500
X116.500Y-3.500
X3.500Y-96.500
X116.500Y-96.500
; === ESP32-S3 left header (T4, 22 holes) ===
T4
X40.000Y-35.000
X40.000Y-37.540
X40.000Y-40.080
X40.000Y-42.620
X40.000Y-45.160
X40.000Y-47.700
X40.000Y-50.240
X40.000Y-52.780
X40.000Y-55.320
X40.000Y-57.860
X40.000Y-60.400
X40.000Y-62.940
X40.000Y-65.480
X40.000Y-68.020
X40.000Y-70.560
X40.000Y-73.100
X40.000Y-75.640
X40.000Y-78.180
X40.000Y-80.720
X40.000Y-83.260
X40.000Y-85.800
X40.000Y-88.340
; === ESP32-S3 right header (T4) ===
X50.000Y-35.000
X50.000Y-37.540
X50.000Y-40.080
X50.000Y-42.620
X50.000Y-45.160
X50.000Y-47.700
X50.000Y-50.240
X50.000Y-52.780
X50.000Y-55.320
X50.000Y-57.860
X50.000Y-60.400
X50.000Y-62.940
X50.000Y-65.480
X50.000Y-68.020
X50.000Y-70.560
X50.000Y-73.100
X50.000Y-75.640
X50.000Y-78.180
X50.000Y-80.720
X50.000Y-83.260
X50.000Y-85.800
X50.000Y-88.340
; === W5500 module (T4, 8 holes) ===
X62.000Y-20.000
X62.000Y-22.540
X62.000Y-25.080
X62.000Y-27.620
X62.000Y-30.160
X62.000Y-32.700
X62.000Y-35.240
X62.000Y-37.780
; === EZO connectors JST-XH 4-pin J1-J5 (T4, 4 holes each) ===
X85.000Y-10.000
X87.500Y-10.000
X90.000Y-10.000
X92.500Y-10.000
X92.000Y-10.000
X94.500Y-10.000
X97.000Y-10.000
X99.500Y-10.000
X99.000Y-10.000
X101.500Y-10.000
X104.000Y-10.000
X106.500Y-10.000
X106.000Y-10.000
X108.500Y-10.000
X111.000Y-10.000
X113.500Y-10.000
X113.000Y-10.000
X115.500Y-10.000
X118.000Y-10.000
X120.500Y-10.000
; === LM2596 TO-263-5 (T5) ===
T5
; TO-263 uses SMD pads — no through-holes
; === MOSFET TO-220 Q1, Q2 (T5) ===
X87.460Y-70.000
X90.000Y-70.000
X92.540Y-70.000
X102.460Y-70.000
X105.000Y-70.000
X107.540Y-70.000
; === Inductor L1 (T5, 2 holes) ===
X71.110Y-55.000
X88.890Y-55.000
; === Cap C11 THT (T4) ===
T4
X100.000Y-55.000
X105.000Y-55.000
; === Flyback diodes D6, D7 THT (T2) ===
T2
X84.920Y-82.000
X95.080Y-82.000
X99.920Y-82.000
X110.080Y-82.000
; === Valve screw terminals J6, J7 (T6) ===
T6
X90.000Y-93.000
X95.080Y-93.000
X105.000Y-93.000
X110.080Y-93.000
; === YF-S201 J8 JST-XH 3-pin (T4) ===
T4
X115.000Y-55.000
X117.500Y-55.000
X120.000Y-55.000
; === HLK-PM05 (T5) ===
T5
X8.000Y-30.000
X13.000Y-30.000
X18.000Y-30.000
X23.000Y-30.000
; === DC Jack J10 (T6) ===
T6
X5.000Y-62.000
X5.000Y-64.500
; === UART debug J11 (T4, 4 holes) ===
T4
X115.000Y-80.000
X115.000Y-82.540
X115.000Y-85.080
X115.000Y-87.620
; === RJ45 signal pins J9 (T3) ===
T3
X15.000Y-93.000
X16.430Y-93.000
X17.860Y-93.000
X19.290Y-93.000
X20.710Y-93.000
X22.140Y-93.000
X23.570Y-93.000
X25.000Y-93.000
; === RJ45 shield (T4) ===
T4
X13.500Y-98.000
X26.500Y-98.000
; === Electrolytic caps C1, C2 THT (T1) ===
T1
X25.000Y-18.000
X28.500Y-18.000
X32.000Y-18.000
X35.500Y-18.000
; === Vias (T1) ===
X15.000Y-13.000
X25.000Y-13.000
X40.000Y-13.000
X55.000Y-13.000
M30
