M48
; Sensor Node — Sera AI — Drill File
; KiCad 7.0 — 2026-03-11
; Board: 100x80mm
; Units: MM
; Format: Excellon
METRIC,TZ
FMAT,2
; Tool table
T1C0.600  ; Via drill 0.6mm
T2C0.800  ; Via drill 0.8mm (power)
T3C1.000  ; Header pin hole 1.0mm
T4C1.200  ; DC Jack hole 1.2mm
T5C1.500  ; DC Jack center 1.5mm
T6C3.200  ; M3 mounting hole 3.2mm
%
G90
G05
M71
; === Mounting holes M3 (T6) ===
T6
X3.500Y-3.500
X96.500Y-3.500
X3.500Y-76.500
X96.500Y-76.500
; === ESP32-S3 left header (T3, 22 holes @ 40mm) ===
T3
X40.000Y-35.000
X40.000Y-37.540
X40.000Y-40.080
X40.000Y-42.620
X40.000Y-45.160
X40.000Y-47.700
X40.000Y-50.240
X40.000Y-52.780
X40.000Y-55.320
X40.000Y-57.860
X40.000Y-60.400
X40.000Y-62.940
X40.000Y-65.480
X40.000Y-68.020
X40.000Y-70.560
X40.000Y-73.100
X40.000Y-75.640
X40.000Y-78.180
X40.000Y-80.720
X40.000Y-83.260
X40.000Y-85.800
X40.000Y-88.340
; === ESP32-S3 right header (T3, 22 holes @ 50mm) ===
X50.000Y-35.000
X50.000Y-37.540
X50.000Y-40.080
X50.000Y-42.620
X50.000Y-45.160
X50.000Y-47.700
X50.000Y-50.240
X50.000Y-52.780
X50.000Y-55.320
X50.000Y-57.860
X50.000Y-60.400
X50.000Y-62.940
X50.000Y-65.480
X50.000Y-68.020
X50.000Y-70.560
X50.000Y-73.100
X50.000Y-75.640
X50.000Y-78.180
X50.000Y-80.720
X50.000Y-83.260
X50.000Y-85.800
X50.000Y-88.340
; === W5500 module header (T3, 8 holes) ===
X70.000Y-20.000
X70.000Y-22.540
X70.000Y-25.080
X70.000Y-27.620
X70.000Y-30.160
X70.000Y-32.700
X70.000Y-35.240
X70.000Y-37.780
; === JST-XH J1 SHT40 (T3, 4 holes) ===
X85.000Y-10.000
X87.500Y-10.000
X90.000Y-10.000
X92.500Y-10.000
; === JST-XH J2 SCD41 (T3, 4 holes) ===
X85.000Y-22.000
X87.500Y-22.000
X90.000Y-22.000
X92.500Y-22.000
; === JST-XH J3 AS7341 (T3, 4 holes) ===
X85.000Y-34.000
X87.500Y-34.000
X90.000Y-34.000
X92.500Y-34.000
; === JST-XH J4 TEROS-12 (T3, 3 holes) ===
X85.000Y-46.000
X87.500Y-46.000
X90.000Y-46.000
; === HLK-PM05 (T2, 4 holes) ===
T2
X8.000Y-30.000
X8.000Y-32.540
X8.000Y-35.080
X8.000Y-37.620
; === DC Jack J5 (T5) ===
T5
X5.000Y-62.000
X5.000Y-64.500
; === UART debug J6 (T3, 4 holes) ===
T3
X93.000Y-60.000
X93.000Y-62.540
X93.000Y-65.080
X93.000Y-67.620
; === RJ45 J7 signal pins (T3, 8 holes) ===
X15.000Y-72.000
X16.430Y-72.000
X17.860Y-72.000
X19.290Y-72.000
X20.710Y-72.000
X22.140Y-72.000
X23.570Y-72.000
X25.000Y-72.000
; === RJ45 shield (T2, 2 holes) ===
T2
X13.500Y-77.000
X26.500Y-77.000
; === Decoupling caps THT C1 C2 (T1) ===
T1
X25.000Y-18.000
X28.500Y-18.000
X32.000Y-18.000
X35.500Y-18.000
; === Vias (T1) ===
X15.000Y-13.000
X25.000Y-13.000
X40.000Y-13.000
X55.000Y-10.000
X60.000Y-10.000
M30
