M48
; Climate Node — Sera AI — Drill File
; KiCad 7.0 — 2026-03-11
; Board: 120x100mm
; Units: MM
; Format: Excellon
METRIC,TZ
FMAT,2
; Tool table
T1C0.600  ; Via drill 0.6mm
T2C0.800  ; DIP/THT 0.8mm
T3C1.000  ; Header pin 1.0mm
T4C1.200  ; Power THT 1.2mm
T5C1.300  ; MOV/fuse 1.3mm
T6C1.500  ; AC screw terminal 1.5mm
T7C3.200  ; M3 mounting hole 3.2mm
%
G90
G05
M71
; === Mounting holes M3 (T7) ===
T7
X3.500Y-3.500
X116.500Y-3.500
X3.500Y-96.500
X116.500Y-96.500
; === ESP32-S3 left header (T3, 22 holes) ===
T3
X48.000Y-35.000
X48.000Y-37.540
X48.000Y-40.080
X48.000Y-42.620
X48.000Y-45.160
X48.000Y-47.700
X48.000Y-50.240
X48.000Y-52.780
X48.000Y-55.320
X48.000Y-57.860
X48.000Y-60.400
X48.000Y-62.940
X48.000Y-65.480
X48.000Y-68.020
X48.000Y-70.560
X48.000Y-73.100
X48.000Y-75.640
X48.000Y-78.180
X48.000Y-80.720
X48.000Y-83.260
X48.000Y-85.800
X48.000Y-88.340
; === ESP32-S3 right header (T3, 22 holes) ===
X58.000Y-35.000
X58.000Y-37.540
X58.000Y-40.080
X58.000Y-42.620
X58.000Y-45.160
X58.000Y-47.700
X58.000Y-50.240
X58.000Y-52.780
X58.000Y-55.320
X58.000Y-57.860
X58.000Y-60.400
X58.000Y-62.940
X58.000Y-65.480
X58.000Y-68.020
X58.000Y-70.560
X58.000Y-73.100
X58.000Y-75.640
X58.000Y-78.180
X58.000Y-80.720
X58.000Y-83.260
X58.000Y-85.800
X58.000Y-88.340
; === W5500 module (T3, 8 holes) ===
X62.000Y-20.000
X62.000Y-22.540
X62.000Y-25.080
X62.000Y-27.620
X62.000Y-30.160
X62.000Y-32.700
X62.000Y-35.240
X62.000Y-37.780
; === PC817 U4 DIP-4 (T2) ===
T2
X75.000Y-45.000
X75.000Y-47.540
X82.620Y-47.540
X82.620Y-45.000
; === PC817 U5 DIP-4 (T2) ===
X88.000Y-45.000
X88.000Y-47.540
X95.620Y-47.540
X95.620Y-45.000
; === PC817 U6 DIP-4 (T2) ===
X101.000Y-45.000
X101.000Y-47.540
X108.620Y-47.540
X108.620Y-45.000
; === PC817 U7 DIP-4 (T2) ===
X114.000Y-45.000
X114.000Y-47.540
X121.620Y-47.540
X121.620Y-45.000
; === SSR control headers (T3, 2 holes each × 4) ===
T3
X75.000Y-58.000
X75.000Y-60.540
X88.000Y-58.000
X88.000Y-60.540
X101.000Y-58.000
X101.000Y-60.540
X114.000Y-58.000
X114.000Y-60.540
; === AC screw terminal J_AC 5-pin (T6) ===
T6
X20.000Y-85.000
X25.080Y-85.000
X30.160Y-85.000
X35.240Y-85.000
X40.320Y-85.000
; === MOV RV1 (T5) ===
T5
X10.000Y-78.000
X17.500Y-78.000
; === Fuse holder F1 (T5) ===
X35.000Y-78.000
X55.000Y-78.000
; === HLK-PM05 (T4) ===
T4
X8.000Y-30.000
X13.000Y-30.000
X18.000Y-30.000
X23.000Y-30.000
; === RJ45 signal pins (T3) ===
T3
X15.000Y-93.000
X16.430Y-93.000
X17.860Y-93.000
X19.290Y-93.000
X20.710Y-93.000
X22.140Y-93.000
X23.570Y-93.000
X25.000Y-93.000
; === RJ45 shield (T2) ===
T2
X13.500Y-98.000
X26.500Y-98.000
; === UART debug J6 (T3, 4 holes) ===
T3
X113.000Y-63.000
X113.000Y-65.540
X113.000Y-68.080
X113.000Y-70.620
; === Vias (T1) ===
T1
X15.000Y-13.000
X25.000Y-13.000
X48.000Y-13.000
; === Electrolytic caps THT (T1) ===
X25.000Y-18.000
X28.500Y-18.000
X32.000Y-18.000
X35.500Y-18.000
M30
